<svg width="34" height="34" viewBox="0 0 34 34" fill="none" xmlns="http://www.w3.org/2000/svg">
<path fill-rule="evenodd" clip-rule="evenodd" d="M17 34C26.3888 34 34 26.3888 34 17C34 7.61116 26.3888 0 17 0C7.61116 0 0 7.61116 0 17C0 26.3888 7.61116 34 17 34Z" fill="#FB5228"/>
<path fill-rule="evenodd" clip-rule="evenodd" d="M21.3621 15.7291C21.1671 15.9743 20.9373 16.1991 20.6727 16.4035C20.4081 16.6078 20.1504 16.744 19.8997 16.8121C19.649 16.8802 19.4471 16.8598 19.2939 16.7508C19.1407 16.6419 19.0641 16.383 19.0641 15.9743C19.4262 14.939 19.6281 13.8629 19.6699 12.7458C19.7117 11.6287 19.6351 10.6071 19.4401 9.68072C19.2451 8.75438 18.9596 8.00514 18.5836 7.43299C18.2075 6.86084 17.7967 6.60201 17.351 6.65651C16.961 6.711 16.5989 7.21503 16.2646 8.16861C15.9304 9.1222 15.6448 10.2597 15.4081 11.5811C15.1713 12.9025 14.9833 14.2579 14.844 15.6474C14.7047 17.0369 14.6351 18.1812 14.6351 19.0803C14.6072 20.5788 14.7187 21.798 14.9694 22.738C15.2201 23.6779 15.5265 24.4067 15.8886 24.9244C16.2507 25.442 16.6128 25.7894 16.9749 25.9665C17.337 26.1436 17.6156 26.2185 17.8106 26.1913C18.5348 26.1368 19.2033 25.912 19.8162 25.517C20.429 25.1219 20.9791 24.6179 21.4666 24.0049C21.954 23.3918 22.3858 22.7175 22.7618 21.9819C23.1379 21.2463 23.4652 20.5243 23.7437 19.8159C24.0223 19.1075 24.2382 18.4468 24.3914 17.8338C24.5446 17.2208 24.663 16.7372 24.7465 16.383C24.8022 16.2468 25.0111 16.1855 25.3733 16.1991C25.7354 16.2127 25.9443 16.3558 26 16.6282C26 16.71 25.9304 17.0437 25.7911 17.6295C25.6518 18.2153 25.429 18.9236 25.1226 19.7546C24.8162 20.5856 24.4262 21.471 23.9526 22.411C23.4791 23.351 22.915 24.2228 22.2604 25.0265C21.6058 25.8303 20.8538 26.5114 20.0042 27.0699C19.1546 27.6285 18.2145 27.935 17.1838 27.9895C16.2646 28.0439 15.4708 27.8873 14.8022 27.5195C14.1337 27.1517 13.5766 26.6749 13.1309 26.0891C12.6852 25.5033 12.3162 24.8495 12.0237 24.1275C11.7312 23.4055 11.5153 22.7107 11.376 22.0432C11.2368 21.3757 11.1393 20.7899 11.0836 20.2859C11.0279 19.7819 11 19.4345 11 19.2438C11 18.8896 11.0139 18.3038 11.0418 17.4865C11.0696 16.6691 11.1462 15.7496 11.2716 14.7279C11.3969 13.7062 11.5919 12.6436 11.8565 11.5402C12.1212 10.4368 12.4902 9.42189 12.9638 8.49555C13.4373 7.56921 14.0153 6.78592 14.6978 6.14566C15.3802 5.50539 16.2228 5.13078 17.2256 5.0218C18.2563 4.91282 19.1407 5.21251 19.8788 5.92089C20.617 6.62926 21.1741 7.53516 21.5501 8.63859C21.9262 9.74202 22.1003 10.9408 22.0724 12.2349C22.0446 13.5291 21.8078 14.6938 21.3621 15.7291Z" fill="white"/>
</svg>
