<svg width="34" height="34" viewBox="0 0 34 34" fill="none" xmlns="http://www.w3.org/2000/svg">
<path fill-rule="evenodd" clip-rule="evenodd" d="M17 34C26.3888 34 34 26.3888 34 17C34 7.61116 26.3888 0 17 0C7.61116 0 0 7.61116 0 17C0 26.3888 7.61116 34 17 34Z" fill="#233AFF"/>
<path fill-rule="evenodd" clip-rule="evenodd" d="M17 8C17.1089 8 17.2131 8.04367 17.2882 8.12085C17.5764 8.40296 23.9997 14.7707 23.9997 18.8816C24.0179 20.7041 23.2863 22.4572 21.9696 23.746C20.653 25.0347 18.862 25.7508 17 25.733C15.138 25.7508 13.347 25.0347 12.0304 23.746C10.7137 22.4572 9.98211 20.7041 10.0003 18.8816C10.0003 14.7707 16.4236 8.40296 16.7118 8.12085C16.7869 8.04367 16.8911 8 17 8ZM14.1178 18.8816C14.1178 21.1788 16.2589 21.7028 17 21.7028C17.7411 21.7028 19.8822 21.1788 19.8822 18.8816C19.841 17.6725 17.9058 15.0932 17.3294 14.3274C17.2516 14.2259 17.1296 14.1662 17 14.1662C16.8704 14.1662 16.7484 14.2259 16.6706 14.3274C16.6568 14.3457 16.6423 14.365 16.627 14.3853C16.0027 15.2138 14.158 17.6621 14.1178 18.8816Z" fill="white"/>
</svg>
