<svg width="44" height="44" viewBox="0 0 44 44" fill="none" xmlns="http://www.w3.org/2000/svg">
<path fill-rule="evenodd" clip-rule="evenodd" d="M22 44C34.1503 44 44 34.1503 44 22C44 9.84974 34.1503 0 22 0C9.84974 0 0 9.84974 0 22C0 34.1503 9.84974 44 22 44Z" fill="#233AFF"/>
<path fill-rule="evenodd" clip-rule="evenodd" d="M22 11C22.14 11 22.274 11.0558 22.3706 11.1544C22.7411 11.5149 30.9996 19.6515 30.9996 24.9043C31.023 27.233 30.0824 29.4731 28.3895 31.1198C26.6967 32.7666 24.3939 33.6816 22 33.6588C19.6061 33.6816 17.3033 32.7666 15.6105 31.1198C13.9176 29.4731 12.977 27.233 13.0004 24.9043C13.0004 19.6515 21.2589 11.5149 21.6294 11.1544C21.726 11.0558 21.86 11 22 11ZM18.2943 24.9043C18.2943 27.8396 21.0471 28.5091 22 28.5091C22.9529 28.5091 25.7057 27.8396 25.7057 24.9043C25.6528 23.3593 23.1647 20.0635 22.4235 19.085C22.3235 18.9554 22.1666 18.879 22 18.879C21.8334 18.879 21.6765 18.9554 21.5765 19.085C21.5588 19.1084 21.5401 19.1331 21.5204 19.159C20.7178 20.2177 18.346 23.346 18.2943 24.9043Z" fill="white"/>
</svg>
