<svg width="34" height="34" viewBox="0 0 34 34" fill="none" xmlns="http://www.w3.org/2000/svg">
<path fill-rule="evenodd" clip-rule="evenodd" d="M17 34C26.3888 34 34 26.3888 34 17C34 7.61116 26.3888 0 17 0C7.61116 0 0 7.61116 0 17C0 26.3888 7.61116 34 17 34Z" fill="#8C97AC"/>
<path fill-rule="evenodd" clip-rule="evenodd" d="M10.25 12.5C11.4926 12.5 12.5 11.4926 12.5 10.25C12.5 9.00736 11.4926 8 10.25 8C9.00736 8 8 9.00736 8 10.25C8 11.4926 9.00736 12.5 10.25 12.5Z" fill="white"/>
<path fill-rule="evenodd" clip-rule="evenodd" d="M17 12.5C18.2426 12.5 19.25 11.4926 19.25 10.25C19.25 9.00736 18.2426 8 17 8C15.7574 8 14.75 9.00736 14.75 10.25C14.75 11.4926 15.7574 12.5 17 12.5Z" fill="white"/>
<path fill-rule="evenodd" clip-rule="evenodd" d="M23.75 12.5C24.9926 12.5 26 11.4926 26 10.25C26 9.00736 24.9926 8 23.75 8C22.5074 8 21.5 9.00736 21.5 10.25C21.5 11.4926 22.5074 12.5 23.75 12.5Z" fill="white"/>
<path fill-rule="evenodd" clip-rule="evenodd" d="M10.25 19.25C11.4926 19.25 12.5 18.2426 12.5 17C12.5 15.7574 11.4926 14.75 10.25 14.75C9.00736 14.75 8 15.7574 8 17C8 18.2426 9.00736 19.25 10.25 19.25Z" fill="white"/>
<path fill-rule="evenodd" clip-rule="evenodd" d="M17 19.25C18.2426 19.25 19.25 18.2426 19.25 17C19.25 15.7574 18.2426 14.75 17 14.75C15.7574 14.75 14.75 15.7574 14.75 17C14.75 18.2426 15.7574 19.25 17 19.25Z" fill="#E1F523"/>
<path fill-rule="evenodd" clip-rule="evenodd" d="M10.25 26C11.4926 26 12.5 24.9926 12.5 23.75C12.5 22.5074 11.4926 21.5 10.25 21.5C9.00736 21.5 8 22.5074 8 23.75C8 24.9926 9.00736 26 10.25 26Z" fill="white"/>
<path fill-rule="evenodd" clip-rule="evenodd" d="M17 26C18.2426 26 19.25 24.9926 19.25 23.75C19.25 22.5074 18.2426 21.5 17 21.5C15.7574 21.5 14.75 22.5074 14.75 23.75C14.75 24.9926 15.7574 26 17 26Z" fill="white"/>
<path fill-rule="evenodd" clip-rule="evenodd" d="M23.75 26C24.9926 26 26 24.9926 26 23.75C26 22.5074 24.9926 21.5 23.75 21.5C22.5074 21.5 21.5 22.5074 21.5 23.75C21.5 24.9926 22.5074 26 23.75 26Z" fill="#E1F523"/>
</svg>
