<svg width="34" height="34" viewBox="0 0 34 34" fill="none" xmlns="http://www.w3.org/2000/svg">
<path fill-rule="evenodd" clip-rule="evenodd" d="M17 34C26.3888 34 34 26.3888 34 17C34 7.61116 26.3888 0 17 0C7.61116 0 0 7.61116 0 17C0 26.3888 7.61116 34 17 34Z" fill="#76C773"/>
<path opacity="0.497763" fill-rule="evenodd" clip-rule="evenodd" d="M12.5072 21.6524V16.9597L11.048 12.5798C10.9264 12.188 10.5653 11.9478 10.1909 12.0097C9.9728 12.0533 9.78338 12.1996 9.67304 12.4097C9.5627 12.6198 9.54264 12.8724 9.61821 13.1001L11.5205 18.8112C11.5471 18.8916 11.5255 18.9815 11.4663 19.0372C11.4071 19.093 11.3225 19.103 11.2537 19.0623L9.40496 17.9694C8.98219 17.7087 8.44726 17.8417 8.16947 18.2767C7.89167 18.7118 7.96202 19.3062 8.33195 19.6498L13 24C12.6808 23.2662 12.5126 22.4649 12.5072 21.6524Z" fill="white"/>
<path opacity="0.497763" fill-rule="evenodd" clip-rule="evenodd" d="M14.9931 12.6898C15.5895 12.8144 16.0645 13.2752 16.2175 13.8776L16.2303 13.926L16.3608 15L17 13.8353L15.4733 9.54174C15.352 9.17537 14.9911 8.95087 14.6171 9.00917C14.3991 9.04984 14.2097 9.18678 14.0995 9.38342C13.9893 9.58007 13.9696 9.8164 14.0456 10.0293L14.9931 12.6898Z" fill="white"/>
<path opacity="0.497763" fill-rule="evenodd" clip-rule="evenodd" d="M17.3218 13L18 11.4082C17.939 11.2308 17.8244 11.0953 17.6841 11.0346C17.5439 10.9739 17.3907 10.9936 17.2619 11.089C17.0358 11.2712 16.9412 11.641 17.0374 11.9668L17.3218 13Z" fill="white"/>
<path opacity="0.497763" fill-rule="evenodd" clip-rule="evenodd" d="M12.6436 14C12.7423 13.317 13.2693 12.7448 14 12.5273L12.8017 9.57898C12.6534 9.1873 12.212 8.94735 11.7549 9.00986C11.4884 9.05311 11.2567 9.19937 11.1219 9.40954C10.987 9.61971 10.9628 9.87238 11.0556 10.1L12.6436 14Z" fill="white"/>
<path fill-rule="evenodd" clip-rule="evenodd" d="M25.5498 16.2308C25.18 16.0874 24.7664 16.2456 24.5681 16.6061L22.9047 19.694C22.8013 19.8859 22.5706 19.9527 22.3895 19.8431C22.2084 19.7334 22.1455 19.489 22.2489 19.2971L25.2243 13.7752C25.4198 13.4305 25.3539 12.9868 25.068 12.7224C24.8961 12.5728 24.6707 12.5112 24.452 12.5539C24.2332 12.5966 24.0434 12.7394 23.9331 12.9441L20.9369 18.5044C20.87 18.6286 20.7457 18.7054 20.6108 18.7061C20.4759 18.7068 20.3509 18.6311 20.2829 18.5077C20.2149 18.3842 20.2142 18.2316 20.2811 18.1075L23.4442 12.2374C23.6412 11.8921 23.5752 11.4467 23.2879 11.1819C23.1159 11.0322 22.8904 10.9705 22.6715 11.0133C22.4527 11.0561 22.2628 11.1991 22.1526 11.404L18.9699 17.3112C18.8665 17.5031 18.6358 17.5698 18.4547 17.4602C18.2736 17.3506 18.2107 17.1062 18.3141 16.9142L20.7281 12.4327C20.9225 12.0885 20.8567 11.6461 20.5718 11.382C20.3998 11.2322 20.1743 11.1706 19.9555 11.2134C19.7366 11.2562 19.5467 11.3991 19.4365 11.604L16.3591 17.406C16.3192 17.4813 16.2381 17.5209 16.1581 17.5042C16.0781 17.4875 16.0172 17.4182 16.0073 17.3324L15.6675 14.4574C15.5644 14.0326 15.187 13.7487 14.7746 13.786C14.3246 13.8458 13.9901 14.2566 14.0002 14.7371V21.3314C14.0062 22.9745 14.8393 24.4892 16.1855 25.3043C18.378 26.6935 21.218 25.9372 22.5305 23.6145L25.9005 17.36C26.0066 17.1632 26.029 16.928 25.9621 16.7127C25.8953 16.4974 25.7454 16.3223 25.5498 16.2308Z" fill="white"/>
</svg>
