<svg width="34" height="34" viewBox="0 0 34 34" fill="none" xmlns="http://www.w3.org/2000/svg">
<path fill-rule="evenodd" clip-rule="evenodd" d="M17 34C26.3888 34 34 26.3888 34 17C34 7.61116 26.3888 0 17 0C7.61116 0 0 7.61116 0 17C0 26.3888 7.61116 34 17 34Z" fill="#F5A623"/>
<path fill-rule="evenodd" clip-rule="evenodd" d="M22.8183 14H9.36346C9.23469 14 9.11556 13.9488 9.05025 13.8656C8.98494 13.7824 8.98318 13.6795 9.04563 13.595L10.8639 11.1405C10.9279 11.0538 11.0496 11.0001 11.1817 11H24.6365C24.7653 11 24.8844 11.0512 24.9497 11.1344C25.0151 11.2176 25.0168 11.3205 24.9544 11.405L23.1361 13.8595C23.0721 13.9462 22.9504 13.9999 22.8183 14Z" fill="white"/>
<path fill-rule="evenodd" clip-rule="evenodd" d="M22.8183 19H9.36346C9.23469 19 9.11556 18.9488 9.05025 18.8656C8.98494 18.7824 8.98318 18.6795 9.04563 18.595L10.8639 16.1405C10.9279 16.0538 11.0496 16.0001 11.1817 16H24.6365C24.7653 16 24.8844 16.0512 24.9497 16.1344C25.0151 16.2176 25.0168 16.3205 24.9544 16.405L23.1361 18.8595C23.0721 18.9462 22.9504 18.9999 22.8183 19Z" fill="white"/>
<path fill-rule="evenodd" clip-rule="evenodd" d="M22.8183 24H9.36346C9.23469 24 9.11556 23.9488 9.05025 23.8656C8.98494 23.7824 8.98318 23.6795 9.04563 23.595L10.8639 21.1405C10.9279 21.0538 11.0496 21.0001 11.1817 21H24.6365C24.7653 21 24.8844 21.0512 24.9497 21.1344C25.0151 21.2176 25.0168 21.3205 24.9544 21.405L23.1361 23.8595C23.0721 23.9462 22.9504 23.9999 22.8183 24Z" fill="white"/>
</svg>
